<svg width="449" height="408" viewBox="0 0 449 408" fill="none" xmlns="http://www.w3.org/2000/svg">
<g style="mix-blend-mode:hard-light" filter="url(#filter0_f_201_178)">
<ellipse cx="111.629" cy="203.92" rx="66.9774" ry="122.352" fill="#128DFF" fill-opacity="0.2"/>
</g>
<g style="mix-blend-mode:hard-light" filter="url(#filter1_f_201_178)">
<path d="M65.8146 289.427C62.9688 284.874 80.7551 222.076 90.0041 191.247V188.401C78.1466 212.59 54.7161 265.665 55.8545 284.447C56.9928 303.23 77.6724 306.502 87.87 305.791L130.557 300.811C152.186 299.672 162.81 289.427 165.419 284.447C175.664 238.345 144.549 202.63 127.711 190.535C137.435 186.029 157.166 171.184 158.304 147.848C159.442 124.512 141.229 111.089 131.98 107.295C117.04 101.129 84.1704 95.2002 72.2179 120.813C60.2655 146.425 71.9808 168.954 79.3325 177.018C85.2613 181.523 98.9687 190.535 106.368 190.535C113.767 190.535 121.308 194.33 124.154 196.227C134.115 205.239 155.031 229.665 159.015 255.278C163 280.89 153.561 288.716 148.344 289.427C136.012 291.088 107.079 294.692 90.0041 295.831C68.6601 297.254 69.3719 295.119 65.8146 289.427Z" stroke="#0094FF" stroke-width="4.27306"/>
</g>
<g style="mix-blend-mode:hard-light" filter="url(#filter2_f_201_178)">
<path d="M65.8146 289.427C62.9688 284.874 80.7551 222.076 90.0041 191.247V188.401C78.1466 212.59 54.7161 265.665 55.8545 284.447C56.9928 303.23 77.6724 306.502 87.87 305.791L130.557 300.811C152.186 299.672 162.81 289.427 165.419 284.447C175.664 238.345 144.549 202.63 127.711 190.535C137.435 186.029 157.166 171.184 158.304 147.848C159.442 124.512 141.229 111.089 131.98 107.295C117.04 101.129 84.1704 95.2002 72.2179 120.813C60.2655 146.425 71.9808 168.954 79.3325 177.018C85.2613 181.523 98.9687 190.535 106.368 190.535C113.767 190.535 121.308 194.33 124.154 196.227C134.115 205.239 155.031 229.665 159.015 255.278C163 280.89 153.561 288.716 148.344 289.427C136.012 291.088 107.079 294.692 90.0041 295.831C68.6601 297.254 69.3719 295.119 65.8146 289.427Z" stroke="#0094FF" stroke-width="5.58784"/>
</g>
<g style="mix-blend-mode:hard-light" filter="url(#filter3_ddi_201_178)">
<path d="M65.8146 289.427C62.9688 284.874 80.7551 222.076 90.0041 191.247V188.401C78.1466 212.59 54.7161 265.665 55.8545 284.447C56.9928 303.23 77.6724 306.502 87.87 305.791L130.557 300.811C152.186 299.672 162.81 289.427 165.419 284.447C175.664 238.345 144.549 202.63 127.711 190.535C137.435 186.029 157.166 171.184 158.304 147.848C159.442 124.512 141.229 111.089 131.98 107.295C117.04 101.129 84.1704 95.2002 72.2179 120.813C60.2655 146.425 71.9808 168.954 79.3325 177.018C85.2613 181.523 98.9687 190.535 106.368 190.535C113.767 190.535 121.308 194.33 124.154 196.227C134.115 205.239 155.031 229.665 159.015 255.278C163 280.89 153.561 288.716 148.344 289.427C136.012 291.088 107.079 294.692 90.0041 295.831C68.6601 297.254 69.3719 295.119 65.8146 289.427Z" stroke="#00B3FF" stroke-opacity="0.2" stroke-width="4.27306"/>
</g>
<g filter="url(#filter4_f_201_178)">
<path d="M65.8146 289.427C62.9688 284.874 80.7551 222.076 90.0041 191.247V188.401C78.1466 212.59 54.7161 265.665 55.8545 284.447C56.9928 303.23 77.6724 306.502 87.87 305.791L130.557 300.811C152.186 299.672 162.81 289.427 165.419 284.447C175.664 238.345 144.549 202.63 127.711 190.535C137.435 186.029 157.166 171.184 158.304 147.848C159.442 124.512 141.229 111.089 131.98 107.295C117.04 101.129 84.1704 95.2002 72.2179 120.813C60.2655 146.425 71.9808 168.954 79.3325 177.018C85.2613 181.523 98.9687 190.535 106.368 190.535C113.767 190.535 121.308 194.33 124.154 196.227C134.115 205.239 155.031 229.665 159.015 255.278C163 280.89 153.561 288.716 148.344 289.427C136.012 291.088 107.079 294.692 90.0041 295.831C68.6601 297.254 69.3719 295.119 65.8146 289.427Z" stroke="#82D9FF" stroke-width="2.62957"/>
</g>
<g filter="url(#filter5_f_201_178)">
<path d="M65.8146 289.427C62.9688 284.874 80.7551 222.076 90.0041 191.247V188.401C78.1466 212.59 54.7161 265.665 55.8545 284.447C56.9928 303.23 77.6724 306.502 87.87 305.791L130.557 300.811C152.186 299.672 162.81 289.427 165.419 284.447C175.664 238.345 144.549 202.63 127.711 190.535C137.435 186.029 157.166 171.184 158.304 147.848C159.442 124.512 141.229 111.089 131.98 107.295C117.04 101.129 84.1704 95.2002 72.2179 120.813C60.2655 146.425 71.9808 168.954 79.3325 177.018C85.2613 181.523 98.9687 190.535 106.368 190.535C113.767 190.535 121.308 194.33 124.154 196.227C134.115 205.239 155.031 229.665 159.015 255.278C163 280.89 153.561 288.716 148.344 289.427C136.012 291.088 107.079 294.692 90.0041 295.831C68.6601 297.254 69.3719 295.119 65.8146 289.427Z" stroke="white" stroke-width="1.31479"/>
</g>
<g style="mix-blend-mode:hard-light" filter="url(#filter6_f_201_178)">
<ellipse cx="103.872" cy="36.9956" rx="2.13437" ry="19.6362" fill="#128DFF" fill-opacity="0.2"/>
</g>
<g style="mix-blend-mode:hard-light" filter="url(#filter7_f_201_178)">
<path d="M102.094 53.3592V20.6322L105.651 21.3437L104.939 53.3592H102.094Z" stroke="#0094FF" stroke-width="0.491349"/>
</g>
<g style="mix-blend-mode:hard-light" filter="url(#filter8_f_201_178)">
<path d="M102.094 53.3592V20.6322L105.651 21.3437L104.939 53.3592H102.094Z" stroke="#0094FF" stroke-width="0.642533"/>
</g>
<g style="mix-blend-mode:hard-light" filter="url(#filter9_ddi_201_178)">
<path d="M102.094 53.3592V20.6322L105.651 21.3437L104.939 53.3592H102.094Z" stroke="#00B3FF" stroke-opacity="0.2" stroke-width="0.491349"/>
</g>
<g filter="url(#filter10_f_201_178)">
<path d="M102.094 53.3592V20.6322L105.651 21.3437L104.939 53.3592H102.094Z" stroke="#82D9FF" stroke-width="0.302368"/>
</g>
<g filter="url(#filter11_f_201_178)">
<path d="M102.094 53.3592V20.6322L105.651 21.3437L104.939 53.3592H102.094Z" stroke="white" stroke-width="0.151184"/>
</g>
<g style="mix-blend-mode:hard-light" filter="url(#filter12_f_201_178)">
<ellipse cx="142.291" cy="51.2247" rx="5.33925" ry="27.3199" fill="#128DFF" fill-opacity="0.2"/>
</g>
<g style="mix-blend-mode:hard-light" filter="url(#filter13_f_201_178)">
<path d="M142.472 28.4581C137.349 36.9955 137.492 62.3708 138.203 73.9912L146.741 28.4581H142.472Z" stroke="#0094FF" stroke-width="0.737098"/>
</g>
<g style="mix-blend-mode:hard-light" filter="url(#filter14_f_201_178)">
<path d="M142.472 28.4581C137.349 36.9955 137.492 62.3708 138.203 73.9912L146.741 28.4581H142.472Z" stroke="#0094FF" stroke-width="0.963898"/>
</g>
<g style="mix-blend-mode:hard-light" filter="url(#filter15_ddi_201_178)">
<path d="M142.472 28.4581C137.349 36.9955 137.492 62.3708 138.203 73.9912L146.741 28.4581H142.472Z" stroke="#00B3FF" stroke-opacity="0.2" stroke-width="0.737098"/>
</g>
<g filter="url(#filter16_f_201_178)">
<path d="M142.472 28.4581C137.349 36.9955 137.492 62.3708 138.203 73.9912L146.741 28.4581H142.472Z" stroke="#82D9FF" stroke-width="0.453599"/>
</g>
<g filter="url(#filter17_f_201_178)">
<path d="M142.472 28.4581C137.349 36.9955 137.492 62.3708 138.203 73.9912L146.741 28.4581H142.472Z" stroke="white" stroke-width="0.2268"/>
</g>
<g style="mix-blend-mode:hard-light" filter="url(#filter18_f_201_178)">
<ellipse cx="72.5684" cy="48.379" rx="13.6599" ry="23.478" fill="#128DFF" fill-opacity="0.2"/>
</g>
<g style="mix-blend-mode:hard-light" filter="url(#filter19_f_201_178)">
<path d="M78.9717 67.944L61.1853 30.9483L66.1655 28.8139L83.9519 65.0982L78.9717 67.944Z" stroke="#0094FF" stroke-width="0.838183"/>
</g>
<g style="mix-blend-mode:hard-light" filter="url(#filter20_f_201_178)">
<path d="M78.9717 67.944L61.1853 30.9483L66.1655 28.8139L83.9519 65.0982L78.9717 67.944Z" stroke="#0094FF" stroke-width="1.09609"/>
</g>
<g style="mix-blend-mode:hard-light" filter="url(#filter21_ddi_201_178)">
<path d="M78.9717 67.944L61.1853 30.9483L66.1655 28.8139L83.9519 65.0982L78.9717 67.944Z" stroke="#00B3FF" stroke-opacity="0.2" stroke-width="0.838183"/>
</g>
<g filter="url(#filter22_f_201_178)">
<path d="M78.9717 67.944L61.1853 30.9483L66.1655 28.8139L83.9519 65.0982L78.9717 67.944Z" stroke="#82D9FF" stroke-width="0.515805"/>
</g>
<g filter="url(#filter23_f_201_178)">
<path d="M78.9717 67.944L61.1853 30.9483L66.1655 28.8139L83.9519 65.0982L78.9717 67.944Z" stroke="white" stroke-width="0.257903"/>
</g>
<g style="mix-blend-mode:hard-light" filter="url(#filter24_f_201_178)">
<ellipse rx="2.13437" ry="19.6362" transform="matrix(-1 0 0 1 320.016 36.9957)" fill="#128DFF" fill-opacity="0.2"/>
</g>
<g style="mix-blend-mode:hard-light" filter="url(#filter25_f_201_178)">
<path d="M321.795 53.3593V20.6323L318.237 21.3438L318.949 53.3593H321.795Z" stroke="#0094FF" stroke-width="0.491349"/>
</g>
<g style="mix-blend-mode:hard-light" filter="url(#filter26_f_201_178)">
<path d="M321.795 53.3593V20.6323L318.237 21.3438L318.949 53.3593H321.795Z" stroke="#0094FF" stroke-width="0.642533"/>
</g>
<g style="mix-blend-mode:hard-light" filter="url(#filter27_ddi_201_178)">
<path d="M321.795 53.3593V20.6323L318.237 21.3438L318.949 53.3593H321.795Z" stroke="#00B3FF" stroke-opacity="0.2" stroke-width="0.491349"/>
</g>
<g filter="url(#filter28_f_201_178)">
<path d="M321.795 53.3593V20.6323L318.237 21.3438L318.949 53.3593H321.795Z" stroke="#82D9FF" stroke-width="0.302368"/>
</g>
<g filter="url(#filter29_f_201_178)">
<path d="M321.795 53.3593V20.6323L318.237 21.3438L318.949 53.3593H321.795Z" stroke="white" stroke-width="0.151184"/>
</g>
<g style="mix-blend-mode:hard-light" filter="url(#filter30_f_201_178)">
<ellipse rx="5.33925" ry="27.3199" transform="matrix(-1 0 0 1 281.598 51.2248)" fill="#128DFF" fill-opacity="0.2"/>
</g>
<g style="mix-blend-mode:hard-light" filter="url(#filter31_f_201_178)">
<path d="M281.417 28.4582C286.54 36.9956 286.397 62.3709 285.686 73.9913L277.148 28.4582H281.417Z" stroke="#0094FF" stroke-width="0.737098"/>
</g>
<g style="mix-blend-mode:hard-light" filter="url(#filter32_f_201_178)">
<path d="M281.417 28.4582C286.54 36.9956 286.397 62.3709 285.686 73.9913L277.148 28.4582H281.417Z" stroke="#0094FF" stroke-width="0.963898"/>
</g>
<g style="mix-blend-mode:hard-light" filter="url(#filter33_ddi_201_178)">
<path d="M281.417 28.4582C286.54 36.9956 286.397 62.3709 285.686 73.9913L277.148 28.4582H281.417Z" stroke="#00B3FF" stroke-opacity="0.2" stroke-width="0.737098"/>
</g>
<g filter="url(#filter34_f_201_178)">
<path d="M281.417 28.4582C286.54 36.9956 286.397 62.3709 285.686 73.9913L277.148 28.4582H281.417Z" stroke="#82D9FF" stroke-width="0.453599"/>
</g>
<g filter="url(#filter35_f_201_178)">
<path d="M281.417 28.4582C286.54 36.9956 286.397 62.3709 285.686 73.9913L277.148 28.4582H281.417Z" stroke="white" stroke-width="0.2268"/>
</g>
<g style="mix-blend-mode:hard-light" filter="url(#filter36_f_201_178)">
<ellipse rx="13.6599" ry="23.478" transform="matrix(-1 0 0 1 351.32 48.3791)" fill="#128DFF" fill-opacity="0.2"/>
</g>
<g style="mix-blend-mode:hard-light" filter="url(#filter37_f_201_178)">
<path d="M344.917 67.9441L362.703 30.9484L357.723 28.814L339.937 65.0983L344.917 67.9441Z" stroke="#0094FF" stroke-width="0.838183"/>
</g>
<g style="mix-blend-mode:hard-light" filter="url(#filter38_f_201_178)">
<path d="M344.917 67.9441L362.703 30.9484L357.723 28.814L339.937 65.0983L344.917 67.9441Z" stroke="#0094FF" stroke-width="1.09609"/>
</g>
<g style="mix-blend-mode:hard-light" filter="url(#filter39_ddi_201_178)">
<path d="M344.917 67.9441L362.703 30.9484L357.723 28.814L339.937 65.0983L344.917 67.9441Z" stroke="#00B3FF" stroke-opacity="0.2" stroke-width="0.838183"/>
</g>
<g filter="url(#filter40_f_201_178)">
<path d="M344.917 67.9441L362.703 30.9484L357.723 28.814L339.937 65.0983L344.917 67.9441Z" stroke="#82D9FF" stroke-width="0.515805"/>
</g>
<g filter="url(#filter41_f_201_178)">
<path d="M344.917 67.9441L362.703 30.9484L357.723 28.814L339.937 65.0983L344.917 67.9441Z" stroke="white" stroke-width="0.257903"/>
</g>
<g style="mix-blend-mode:hard-light" filter="url(#filter42_f_201_178)">
<ellipse cx="322.681" cy="210.768" rx="75.7915" ry="111.947" fill="#128DFF" fill-opacity="0.2"/>
</g>
<g style="mix-blend-mode:hard-light" filter="url(#filter43_f_201_178)">
<path d="M339.654 200.672L375.227 256.877C384.333 289.319 368.587 297.43 359.575 297.43C335.623 297.904 285.299 298.568 275.623 297.43C265.947 296.291 266.374 280.829 267.797 273.24L301.181 211.391L262.763 261.904C259.899 272.576 256.316 295.058 264.897 299.611C273.478 304.164 337.246 304.354 368.058 303.88C377.544 301.477 393.528 288.712 381.575 256.877L344.58 196.11M339.654 200.672C329.931 202.095 307.639 202.664 296.255 193.557C282.026 182.174 269.22 151.581 277.757 135.929C286.295 120.277 302.658 112.451 331.117 120.989C351.375 131.232 380.984 160.089 344.58 196.11M339.654 200.672C341.415 199.139 343.055 197.618 344.58 196.11" stroke="#0094FF" stroke-width="2.77468"/>
</g>
<g style="mix-blend-mode:hard-light" filter="url(#filter44_f_201_178)">
<path d="M339.654 200.672L375.227 256.877C384.333 289.319 368.587 297.43 359.575 297.43C335.623 297.904 285.299 298.568 275.623 297.43C265.947 296.291 266.374 280.829 267.797 273.24L301.181 211.391L262.763 261.904C259.899 272.576 256.316 295.058 264.897 299.611C273.478 304.164 337.246 304.354 368.058 303.88C377.544 301.477 393.528 288.712 381.575 256.877L344.58 196.11M339.654 200.672C329.931 202.095 307.639 202.664 296.255 193.557C282.026 182.174 269.22 151.581 277.757 135.929C286.295 120.277 302.658 112.451 331.117 120.989C351.375 131.232 380.984 160.089 344.58 196.11M339.654 200.672C341.415 199.139 343.055 197.618 344.58 196.11" stroke="#0094FF" stroke-width="3.62842"/>
</g>
<g style="mix-blend-mode:hard-light" filter="url(#filter45_ddi_201_178)">
<path d="M339.654 200.672L375.227 256.877C384.333 289.319 368.587 297.43 359.575 297.43C335.623 297.904 285.299 298.568 275.623 297.43C265.947 296.291 266.374 280.829 267.797 273.24L301.181 211.391L262.763 261.904C259.899 272.576 256.316 295.058 264.897 299.611C273.478 304.164 337.246 304.354 368.058 303.88C377.544 301.477 393.528 288.712 381.575 256.877L344.58 196.11M339.654 200.672C329.931 202.095 307.639 202.664 296.255 193.557C282.026 182.174 269.22 151.581 277.757 135.929C286.295 120.277 302.658 112.451 331.117 120.989C351.375 131.232 380.984 160.089 344.58 196.11M339.654 200.672C341.415 199.139 343.055 197.618 344.58 196.11" stroke="#00B3FF" stroke-opacity="0.2" stroke-width="2.77468"/>
</g>
<g filter="url(#filter46_f_201_178)">
<path d="M339.654 200.672L375.227 256.877C384.333 289.319 368.587 297.43 359.575 297.43C335.623 297.904 285.299 298.568 275.623 297.43C265.947 296.291 266.374 280.829 267.797 273.24L301.181 211.391L262.763 261.904C259.899 272.576 256.316 295.058 264.897 299.611C273.478 304.164 337.246 304.354 368.058 303.88C377.544 301.477 393.528 288.712 381.575 256.877L344.58 196.11M339.654 200.672C329.931 202.095 307.639 202.664 296.255 193.557C282.026 182.174 269.22 151.581 277.757 135.929C286.295 120.277 302.658 112.451 331.117 120.989C351.375 131.232 380.984 160.089 344.58 196.11M339.654 200.672C341.415 199.139 343.055 197.618 344.58 196.11" stroke="#82D9FF" stroke-width="1.70749"/>
</g>
<g filter="url(#filter47_f_201_178)">
<path d="M339.654 200.672L375.227 256.877C384.333 289.319 368.587 297.43 359.575 297.43C335.623 297.904 285.299 298.568 275.623 297.43C265.947 296.291 266.374 280.829 267.797 273.24L301.181 211.391L262.763 261.904C259.899 272.576 256.316 295.058 264.897 299.611C273.478 304.164 337.246 304.354 368.058 303.88C377.544 301.477 393.528 288.712 381.575 256.877L344.58 196.11M339.654 200.672C329.931 202.095 307.639 202.664 296.255 193.557C282.026 182.174 269.22 151.581 277.757 135.929C286.295 120.277 302.658 112.451 331.117 120.989C351.375 131.232 380.984 160.089 344.58 196.11M339.654 200.672C341.415 199.139 343.055 197.618 344.58 196.11" stroke="white" stroke-width="0.853746"/>
</g>
<defs>
<filter id="filter0_f_201_178" x="24.9296" y="61.8461" width="173.398" height="284.147" filterUnits="userSpaceOnUse" color-interpolation-filters="sRGB">
<feFlood flood-opacity="0" result="BackgroundImageFix"/>
<feBlend mode="normal" in="SourceGraphic" in2="BackgroundImageFix" result="shape"/>
<feGaussianBlur stdDeviation="9.8609" result="effect1_foregroundBlur_201_178"/>
</filter>
<filter id="filter1_f_201_178" x="33.9564" y="80.1014" width="155.349" height="247.636" filterUnits="userSpaceOnUse" color-interpolation-filters="sRGB">
<feFlood flood-opacity="0" result="BackgroundImageFix"/>
<feBlend mode="normal" in="SourceGraphic" in2="BackgroundImageFix" result="shape"/>
<feGaussianBlur stdDeviation="9.8609" result="effect1_foregroundBlur_201_178"/>
</filter>
<filter id="filter2_f_201_178" x="46.4468" y="92.5918" width="130.37" height="222.655" filterUnits="userSpaceOnUse" color-interpolation-filters="sRGB">
<feFlood flood-opacity="0" result="BackgroundImageFix"/>
<feBlend mode="normal" in="SourceGraphic" in2="BackgroundImageFix" result="shape"/>
<feGaussianBlur stdDeviation="3.28697" result="effect1_foregroundBlur_201_178"/>
</filter>
<filter id="filter3_ddi_201_178" x="45.1321" y="97.851" width="132.998" height="225.285" filterUnits="userSpaceOnUse" color-interpolation-filters="sRGB">
<feFlood flood-opacity="0" result="BackgroundImageFix"/>
<feColorMatrix in="SourceAlpha" type="matrix" values="0 0 0 0 0 0 0 0 0 0 0 0 0 0 0 0 0 0 127 0" result="hardAlpha"/>
<feOffset dy="4.27306"/>
<feGaussianBlur stdDeviation="1.64348"/>
<feColorMatrix type="matrix" values="0 0 0 0 0 0 0 0 0 0.051 0 0 0 0 0.082 0 0 0 0.7 0"/>
<feBlend mode="multiply" in2="BackgroundImageFix" result="effect1_dropShadow_201_178"/>
<feColorMatrix in="SourceAlpha" type="matrix" values="0 0 0 0 0 0 0 0 0 0 0 0 0 0 0 0 0 0 127 0" result="hardAlpha"/>
<feOffset dy="6.57393"/>
<feGaussianBlur stdDeviation="4.27306"/>
<feColorMatrix type="matrix" values="0 0 0 0 0 0 0 0 0 0.4 0 0 0 0 1 0 0 0 1 0"/>
<feBlend mode="color-dodge" in2="effect1_dropShadow_201_178" result="effect2_dropShadow_201_178"/>
<feBlend mode="normal" in="SourceGraphic" in2="effect2_dropShadow_201_178" result="shape"/>
<feColorMatrix in="SourceAlpha" type="matrix" values="0 0 0 0 0 0 0 0 0 0 0 0 0 0 0 0 0 0 127 0" result="hardAlpha"/>
<feOffset dx="-0.427306" dy="0.854611"/>
<feGaussianBlur stdDeviation="0.213653"/>
<feComposite in2="hardAlpha" operator="arithmetic" k2="-1" k3="1"/>
<feColorMatrix type="matrix" values="0 0 0 0 1 0 0 0 0 1 0 0 0 0 1 0 0 0 0.5 0"/>
<feBlend mode="normal" in2="shape" result="effect3_innerShadow_201_178"/>
</filter>
<filter id="filter4_f_201_178" x="53.8424" y="99.9875" width="115.576" height="207.864" filterUnits="userSpaceOnUse" color-interpolation-filters="sRGB">
<feFlood flood-opacity="0" result="BackgroundImageFix"/>
<feBlend mode="normal" in="SourceGraphic" in2="BackgroundImageFix" result="shape"/>
<feGaussianBlur stdDeviation="0.328697" result="effect1_foregroundBlur_201_178"/>
</filter>
<filter id="filter5_f_201_178" x="54.719" y="100.864" width="113.821" height="206.111" filterUnits="userSpaceOnUse" color-interpolation-filters="sRGB">
<feFlood flood-opacity="0" result="BackgroundImageFix"/>
<feBlend mode="normal" in="SourceGraphic" in2="BackgroundImageFix" result="shape"/>
<feGaussianBlur stdDeviation="0.219131" result="effect1_foregroundBlur_201_178"/>
</filter>
<filter id="filter6_f_201_178" x="99.47" y="15.0917" width="8.80433" height="43.8079" filterUnits="userSpaceOnUse" color-interpolation-filters="sRGB">
<feFlood flood-opacity="0" result="BackgroundImageFix"/>
<feBlend mode="normal" in="SourceGraphic" in2="BackgroundImageFix" result="shape"/>
<feGaussianBlur stdDeviation="1.13388" result="effect1_foregroundBlur_201_178"/>
</filter>
<filter id="filter7_f_201_178" x="99.5801" y="18.0648" width="8.58851" height="37.8078" filterUnits="userSpaceOnUse" color-interpolation-filters="sRGB">
<feFlood flood-opacity="0" result="BackgroundImageFix"/>
<feBlend mode="normal" in="SourceGraphic" in2="BackgroundImageFix" result="shape"/>
<feGaussianBlur stdDeviation="1.13388" result="effect1_foregroundBlur_201_178"/>
</filter>
<filter id="filter8_f_201_178" x="101.016" y="19.4844" width="5.71765" height="34.9519" filterUnits="userSpaceOnUse" color-interpolation-filters="sRGB">
<feFlood flood-opacity="0" result="BackgroundImageFix"/>
<feBlend mode="normal" in="SourceGraphic" in2="BackgroundImageFix" result="shape"/>
<feGaussianBlur stdDeviation="0.377961" result="effect1_foregroundBlur_201_178"/>
</filter>
<filter id="filter9_ddi_201_178" x="100.865" y="20.1058" width="6.01837" height="35.2377" filterUnits="userSpaceOnUse" color-interpolation-filters="sRGB">
<feFlood flood-opacity="0" result="BackgroundImageFix"/>
<feColorMatrix in="SourceAlpha" type="matrix" values="0 0 0 0 0 0 0 0 0 0 0 0 0 0 0 0 0 0 127 0" result="hardAlpha"/>
<feOffset dy="0.491349"/>
<feGaussianBlur stdDeviation="0.18898"/>
<feColorMatrix type="matrix" values="0 0 0 0 0 0 0 0 0 0.051 0 0 0 0 0.082 0 0 0 0.7 0"/>
<feBlend mode="multiply" in2="BackgroundImageFix" result="effect1_dropShadow_201_178"/>
<feColorMatrix in="SourceAlpha" type="matrix" values="0 0 0 0 0 0 0 0 0 0 0 0 0 0 0 0 0 0 127 0" result="hardAlpha"/>
<feOffset dy="0.755921"/>
<feGaussianBlur stdDeviation="0.491349"/>
<feColorMatrix type="matrix" values="0 0 0 0 0 0 0 0 0 0.4 0 0 0 0 1 0 0 0 1 0"/>
<feBlend mode="color-dodge" in2="effect1_dropShadow_201_178" result="effect2_dropShadow_201_178"/>
<feBlend mode="normal" in="SourceGraphic" in2="effect2_dropShadow_201_178" result="shape"/>
<feColorMatrix in="SourceAlpha" type="matrix" values="0 0 0 0 0 0 0 0 0 0 0 0 0 0 0 0 0 0 127 0" result="hardAlpha"/>
<feOffset dx="-0.0491349" dy="0.0982698"/>
<feGaussianBlur stdDeviation="0.0245674"/>
<feComposite in2="hardAlpha" operator="arithmetic" k2="-1" k3="1"/>
<feColorMatrix type="matrix" values="0 0 0 0 1 0 0 0 0 1 0 0 0 0 1 0 0 0 0.5 0"/>
<feBlend mode="normal" in2="shape" result="effect3_innerShadow_201_178"/>
</filter>
<filter id="filter10_f_201_178" x="101.867" y="20.3722" width="4.01349" height="33.2137" filterUnits="userSpaceOnUse" color-interpolation-filters="sRGB">
<feFlood flood-opacity="0" result="BackgroundImageFix"/>
<feBlend mode="normal" in="SourceGraphic" in2="BackgroundImageFix" result="shape"/>
<feGaussianBlur stdDeviation="0.0377961" result="effect1_foregroundBlur_201_178"/>
</filter>
<filter id="filter11_f_201_178" x="101.967" y="20.4896" width="3.81075" height="32.9955" filterUnits="userSpaceOnUse" color-interpolation-filters="sRGB">
<feFlood flood-opacity="0" result="BackgroundImageFix"/>
<feBlend mode="normal" in="SourceGraphic" in2="BackgroundImageFix" result="shape"/>
<feGaussianBlur stdDeviation="0.0251974" result="effect1_foregroundBlur_201_178"/>
</filter>
<filter id="filter12_f_201_178" x="133.55" y="20.5028" width="17.4825" height="61.4438" filterUnits="userSpaceOnUse" color-interpolation-filters="sRGB">
<feFlood flood-opacity="0" result="BackgroundImageFix"/>
<feBlend mode="normal" in="SourceGraphic" in2="BackgroundImageFix" result="shape"/>
<feGaussianBlur stdDeviation="1.701" result="effect1_foregroundBlur_201_178"/>
</filter>
<filter id="filter13_f_201_178" x="134.071" y="24.6875" width="16.5154" height="52.7736" filterUnits="userSpaceOnUse" color-interpolation-filters="sRGB">
<feFlood flood-opacity="0" result="BackgroundImageFix"/>
<feBlend mode="normal" in="SourceGraphic" in2="BackgroundImageFix" result="shape"/>
<feGaussianBlur stdDeviation="1.701" result="effect1_foregroundBlur_201_178"/>
</filter>
<filter id="filter14_f_201_178" x="136.226" y="26.8421" width="12.2294" height="48.3719" filterUnits="userSpaceOnUse" color-interpolation-filters="sRGB">
<feFlood flood-opacity="0" result="BackgroundImageFix"/>
<feBlend mode="normal" in="SourceGraphic" in2="BackgroundImageFix" result="shape"/>
<feGaussianBlur stdDeviation="0.566999" result="effect1_foregroundBlur_201_178"/>
</filter>
<filter id="filter15_ddi_201_178" x="135.999" y="27.7493" width="12.6598" height="48.918" filterUnits="userSpaceOnUse" color-interpolation-filters="sRGB">
<feFlood flood-opacity="0" result="BackgroundImageFix"/>
<feColorMatrix in="SourceAlpha" type="matrix" values="0 0 0 0 0 0 0 0 0 0 0 0 0 0 0 0 0 0 127 0" result="hardAlpha"/>
<feOffset dy="0.737098"/>
<feGaussianBlur stdDeviation="0.283499"/>
<feColorMatrix type="matrix" values="0 0 0 0 0 0 0 0 0 0.051 0 0 0 0 0.082 0 0 0 0.7 0"/>
<feBlend mode="multiply" in2="BackgroundImageFix" result="effect1_dropShadow_201_178"/>
<feColorMatrix in="SourceAlpha" type="matrix" values="0 0 0 0 0 0 0 0 0 0 0 0 0 0 0 0 0 0 127 0" result="hardAlpha"/>
<feOffset dy="1.134"/>
<feGaussianBlur stdDeviation="0.737098"/>
<feColorMatrix type="matrix" values="0 0 0 0 0 0 0 0 0 0.4 0 0 0 0 1 0 0 0 1 0"/>
<feBlend mode="color-dodge" in2="effect1_dropShadow_201_178" result="effect2_dropShadow_201_178"/>
<feBlend mode="normal" in="SourceGraphic" in2="effect2_dropShadow_201_178" result="shape"/>
<feColorMatrix in="SourceAlpha" type="matrix" values="0 0 0 0 0 0 0 0 0 0 0 0 0 0 0 0 0 0 127 0" result="hardAlpha"/>
<feOffset dx="-0.0737099" dy="0.14742"/>
<feGaussianBlur stdDeviation="0.0368549"/>
<feComposite in2="hardAlpha" operator="arithmetic" k2="-1" k3="1"/>
<feColorMatrix type="matrix" values="0 0 0 0 1 0 0 0 0 1 0 0 0 0 1 0 0 0 0.5 0"/>
<feBlend mode="normal" in2="shape" result="effect3_innerShadow_201_178"/>
</filter>
<filter id="filter16_f_201_178" x="137.502" y="28.1179" width="9.62573" height="46.0285" filterUnits="userSpaceOnUse" color-interpolation-filters="sRGB">
<feFlood flood-opacity="0" result="BackgroundImageFix"/>
<feBlend mode="normal" in="SourceGraphic" in2="BackgroundImageFix" result="shape"/>
<feGaussianBlur stdDeviation="0.0566999" result="effect1_foregroundBlur_201_178"/>
</filter>
<filter id="filter17_f_201_178" x="137.653" y="28.2691" width="9.29988" height="45.8186" filterUnits="userSpaceOnUse" color-interpolation-filters="sRGB">
<feFlood flood-opacity="0" result="BackgroundImageFix"/>
<feBlend mode="normal" in="SourceGraphic" in2="BackgroundImageFix" result="shape"/>
<feGaussianBlur stdDeviation="0.0377999" result="effect1_foregroundBlur_201_178"/>
</filter>
<filter id="filter18_f_201_178" x="55.0399" y="21.0324" width="35.0569" height="54.6931" filterUnits="userSpaceOnUse" color-interpolation-filters="sRGB">
<feFlood flood-opacity="0" result="BackgroundImageFix"/>
<feBlend mode="normal" in="SourceGraphic" in2="BackgroundImageFix" result="shape"/>
<feGaussianBlur stdDeviation="1.93427" result="effect1_foregroundBlur_201_178"/>
</filter>
<filter id="filter19_f_201_178" x="56.7494" y="24.4033" width="31.6204" height="47.9963" filterUnits="userSpaceOnUse" color-interpolation-filters="sRGB">
<feFlood flood-opacity="0" result="BackgroundImageFix"/>
<feBlend mode="normal" in="SourceGraphic" in2="BackgroundImageFix" result="shape"/>
<feGaussianBlur stdDeviation="1.93427" result="effect1_foregroundBlur_201_178"/>
</filter>
<filter id="filter20_f_201_178" x="59.1538" y="26.8155" width="26.8061" height="43.1857" filterUnits="userSpaceOnUse" color-interpolation-filters="sRGB">
<feFlood flood-opacity="0" result="BackgroundImageFix"/>
<feBlend mode="normal" in="SourceGraphic" in2="BackgroundImageFix" result="shape"/>
<feGaussianBlur stdDeviation="0.644756" result="effect1_foregroundBlur_201_178"/>
</filter>
<filter id="filter21_ddi_201_178" x="58.9416" y="27.885" width="27.236" height="43.612" filterUnits="userSpaceOnUse" color-interpolation-filters="sRGB">
<feFlood flood-opacity="0" result="BackgroundImageFix"/>
<feColorMatrix in="SourceAlpha" type="matrix" values="0 0 0 0 0 0 0 0 0 0 0 0 0 0 0 0 0 0 127 0" result="hardAlpha"/>
<feOffset dy="0.838183"/>
<feGaussianBlur stdDeviation="0.322378"/>
<feColorMatrix type="matrix" values="0 0 0 0 0 0 0 0 0 0.051 0 0 0 0 0.082 0 0 0 0.7 0"/>
<feBlend mode="multiply" in2="BackgroundImageFix" result="effect1_dropShadow_201_178"/>
<feColorMatrix in="SourceAlpha" type="matrix" values="0 0 0 0 0 0 0 0 0 0 0 0 0 0 0 0 0 0 127 0" result="hardAlpha"/>
<feOffset dy="1.28951"/>
<feGaussianBlur stdDeviation="0.838183"/>
<feColorMatrix type="matrix" values="0 0 0 0 0 0 0 0 0 0.4 0 0 0 0 1 0 0 0 1 0"/>
<feBlend mode="color-dodge" in2="effect1_dropShadow_201_178" result="effect2_dropShadow_201_178"/>
<feBlend mode="normal" in="SourceGraphic" in2="effect2_dropShadow_201_178" result="shape"/>
<feColorMatrix in="SourceAlpha" type="matrix" values="0 0 0 0 0 0 0 0 0 0 0 0 0 0 0 0 0 0 127 0" result="hardAlpha"/>
<feOffset dx="-0.0838183" dy="0.167637"/>
<feGaussianBlur stdDeviation="0.0419092"/>
<feComposite in2="hardAlpha" operator="arithmetic" k2="-1" k3="1"/>
<feColorMatrix type="matrix" values="0 0 0 0 1 0 0 0 0 1 0 0 0 0 1 0 0 0 0.5 0"/>
<feBlend mode="normal" in2="shape" result="effect3_innerShadow_201_178"/>
</filter>
<filter id="filter22_f_201_178" x="60.7072" y="28.3514" width="23.7118" height="40.0828" filterUnits="userSpaceOnUse" color-interpolation-filters="sRGB">
<feFlood flood-opacity="0" result="BackgroundImageFix"/>
<feBlend mode="normal" in="SourceGraphic" in2="BackgroundImageFix" result="shape"/>
<feGaussianBlur stdDeviation="0.0644756" result="effect1_foregroundBlur_201_178"/>
</filter>
<filter id="filter23_f_201_178" x="60.9248" y="28.5612" width="23.282" height="39.6494" filterUnits="userSpaceOnUse" color-interpolation-filters="sRGB">
<feFlood flood-opacity="0" result="BackgroundImageFix"/>
<feBlend mode="normal" in="SourceGraphic" in2="BackgroundImageFix" result="shape"/>
<feGaussianBlur stdDeviation="0.0429838" result="effect1_foregroundBlur_201_178"/>
</filter>
<filter id="filter24_f_201_178" x="315.614" y="15.0918" width="8.80433" height="43.8079" filterUnits="userSpaceOnUse" color-interpolation-filters="sRGB">
<feFlood flood-opacity="0" result="BackgroundImageFix"/>
<feBlend mode="normal" in="SourceGraphic" in2="BackgroundImageFix" result="shape"/>
<feGaussianBlur stdDeviation="1.13388" result="effect1_foregroundBlur_201_178"/>
</filter>
<filter id="filter25_f_201_178" x="315.72" y="18.0649" width="8.58851" height="37.8078" filterUnits="userSpaceOnUse" color-interpolation-filters="sRGB">
<feFlood flood-opacity="0" result="BackgroundImageFix"/>
<feBlend mode="normal" in="SourceGraphic" in2="BackgroundImageFix" result="shape"/>
<feGaussianBlur stdDeviation="1.13388" result="effect1_foregroundBlur_201_178"/>
</filter>
<filter id="filter26_f_201_178" x="317.154" y="19.4845" width="5.71765" height="34.9519" filterUnits="userSpaceOnUse" color-interpolation-filters="sRGB">
<feFlood flood-opacity="0" result="BackgroundImageFix"/>
<feBlend mode="normal" in="SourceGraphic" in2="BackgroundImageFix" result="shape"/>
<feGaussianBlur stdDeviation="0.377961" result="effect1_foregroundBlur_201_178"/>
</filter>
<filter id="filter27_ddi_201_178" x="317.005" y="20.1059" width="6.01837" height="35.2377" filterUnits="userSpaceOnUse" color-interpolation-filters="sRGB">
<feFlood flood-opacity="0" result="BackgroundImageFix"/>
<feColorMatrix in="SourceAlpha" type="matrix" values="0 0 0 0 0 0 0 0 0 0 0 0 0 0 0 0 0 0 127 0" result="hardAlpha"/>
<feOffset dy="0.491349"/>
<feGaussianBlur stdDeviation="0.18898"/>
<feColorMatrix type="matrix" values="0 0 0 0 0 0 0 0 0 0.051 0 0 0 0 0.082 0 0 0 0.7 0"/>
<feBlend mode="multiply" in2="BackgroundImageFix" result="effect1_dropShadow_201_178"/>
<feColorMatrix in="SourceAlpha" type="matrix" values="0 0 0 0 0 0 0 0 0 0 0 0 0 0 0 0 0 0 127 0" result="hardAlpha"/>
<feOffset dy="0.755921"/>
<feGaussianBlur stdDeviation="0.491349"/>
<feColorMatrix type="matrix" values="0 0 0 0 0 0 0 0 0 0.4 0 0 0 0 1 0 0 0 1 0"/>
<feBlend mode="color-dodge" in2="effect1_dropShadow_201_178" result="effect2_dropShadow_201_178"/>
<feBlend mode="normal" in="SourceGraphic" in2="effect2_dropShadow_201_178" result="shape"/>
<feColorMatrix in="SourceAlpha" type="matrix" values="0 0 0 0 0 0 0 0 0 0 0 0 0 0 0 0 0 0 127 0" result="hardAlpha"/>
<feOffset dx="-0.0491349" dy="0.0982698"/>
<feGaussianBlur stdDeviation="0.0245674"/>
<feComposite in2="hardAlpha" operator="arithmetic" k2="-1" k3="1"/>
<feColorMatrix type="matrix" values="0 0 0 0 1 0 0 0 0 1 0 0 0 0 1 0 0 0 0.5 0"/>
<feBlend mode="normal" in2="shape" result="effect3_innerShadow_201_178"/>
</filter>
<filter id="filter28_f_201_178" x="318.008" y="20.3723" width="4.01349" height="33.2137" filterUnits="userSpaceOnUse" color-interpolation-filters="sRGB">
<feFlood flood-opacity="0" result="BackgroundImageFix"/>
<feBlend mode="normal" in="SourceGraphic" in2="BackgroundImageFix" result="shape"/>
<feGaussianBlur stdDeviation="0.0377961" result="effect1_foregroundBlur_201_178"/>
</filter>
<filter id="filter29_f_201_178" x="318.11" y="20.4897" width="3.81075" height="32.9955" filterUnits="userSpaceOnUse" color-interpolation-filters="sRGB">
<feFlood flood-opacity="0" result="BackgroundImageFix"/>
<feBlend mode="normal" in="SourceGraphic" in2="BackgroundImageFix" result="shape"/>
<feGaussianBlur stdDeviation="0.0251974" result="effect1_foregroundBlur_201_178"/>
</filter>
<filter id="filter30_f_201_178" x="272.857" y="20.5029" width="17.4825" height="61.4438" filterUnits="userSpaceOnUse" color-interpolation-filters="sRGB">
<feFlood flood-opacity="0" result="BackgroundImageFix"/>
<feBlend mode="normal" in="SourceGraphic" in2="BackgroundImageFix" result="shape"/>
<feGaussianBlur stdDeviation="1.701" result="effect1_foregroundBlur_201_178"/>
</filter>
<filter id="filter31_f_201_178" x="273.302" y="24.6876" width="16.5154" height="52.7736" filterUnits="userSpaceOnUse" color-interpolation-filters="sRGB">
<feFlood flood-opacity="0" result="BackgroundImageFix"/>
<feBlend mode="normal" in="SourceGraphic" in2="BackgroundImageFix" result="shape"/>
<feGaussianBlur stdDeviation="1.701" result="effect1_foregroundBlur_201_178"/>
</filter>
<filter id="filter32_f_201_178" x="275.433" y="26.8422" width="12.2294" height="48.3719" filterUnits="userSpaceOnUse" color-interpolation-filters="sRGB">
<feFlood flood-opacity="0" result="BackgroundImageFix"/>
<feBlend mode="normal" in="SourceGraphic" in2="BackgroundImageFix" result="shape"/>
<feGaussianBlur stdDeviation="0.566999" result="effect1_foregroundBlur_201_178"/>
</filter>
<filter id="filter33_ddi_201_178" x="275.23" y="27.7494" width="12.6598" height="48.918" filterUnits="userSpaceOnUse" color-interpolation-filters="sRGB">
<feFlood flood-opacity="0" result="BackgroundImageFix"/>
<feColorMatrix in="SourceAlpha" type="matrix" values="0 0 0 0 0 0 0 0 0 0 0 0 0 0 0 0 0 0 127 0" result="hardAlpha"/>
<feOffset dy="0.737098"/>
<feGaussianBlur stdDeviation="0.283499"/>
<feColorMatrix type="matrix" values="0 0 0 0 0 0 0 0 0 0.051 0 0 0 0 0.082 0 0 0 0.7 0"/>
<feBlend mode="multiply" in2="BackgroundImageFix" result="effect1_dropShadow_201_178"/>
<feColorMatrix in="SourceAlpha" type="matrix" values="0 0 0 0 0 0 0 0 0 0 0 0 0 0 0 0 0 0 127 0" result="hardAlpha"/>
<feOffset dy="1.134"/>
<feGaussianBlur stdDeviation="0.737098"/>
<feColorMatrix type="matrix" values="0 0 0 0 0 0 0 0 0 0.4 0 0 0 0 1 0 0 0 1 0"/>
<feBlend mode="color-dodge" in2="effect1_dropShadow_201_178" result="effect2_dropShadow_201_178"/>
<feBlend mode="normal" in="SourceGraphic" in2="effect2_dropShadow_201_178" result="shape"/>
<feColorMatrix in="SourceAlpha" type="matrix" values="0 0 0 0 0 0 0 0 0 0 0 0 0 0 0 0 0 0 127 0" result="hardAlpha"/>
<feOffset dx="-0.0737099" dy="0.14742"/>
<feGaussianBlur stdDeviation="0.0368549"/>
<feComposite in2="hardAlpha" operator="arithmetic" k2="-1" k3="1"/>
<feColorMatrix type="matrix" values="0 0 0 0 1 0 0 0 0 1 0 0 0 0 1 0 0 0 0.5 0"/>
<feBlend mode="normal" in2="shape" result="effect3_innerShadow_201_178"/>
</filter>
<filter id="filter34_f_201_178" x="276.761" y="28.118" width="9.62573" height="46.0285" filterUnits="userSpaceOnUse" color-interpolation-filters="sRGB">
<feFlood flood-opacity="0" result="BackgroundImageFix"/>
<feBlend mode="normal" in="SourceGraphic" in2="BackgroundImageFix" result="shape"/>
<feGaussianBlur stdDeviation="0.0566999" result="effect1_foregroundBlur_201_178"/>
</filter>
<filter id="filter35_f_201_178" x="276.936" y="28.2692" width="9.29988" height="45.8186" filterUnits="userSpaceOnUse" color-interpolation-filters="sRGB">
<feFlood flood-opacity="0" result="BackgroundImageFix"/>
<feBlend mode="normal" in="SourceGraphic" in2="BackgroundImageFix" result="shape"/>
<feGaussianBlur stdDeviation="0.0377999" result="effect1_foregroundBlur_201_178"/>
</filter>
<filter id="filter36_f_201_178" x="333.792" y="21.0325" width="35.0569" height="54.6931" filterUnits="userSpaceOnUse" color-interpolation-filters="sRGB">
<feFlood flood-opacity="0" result="BackgroundImageFix"/>
<feBlend mode="normal" in="SourceGraphic" in2="BackgroundImageFix" result="shape"/>
<feGaussianBlur stdDeviation="1.93427" result="effect1_foregroundBlur_201_178"/>
</filter>
<filter id="filter37_f_201_178" x="335.519" y="24.4034" width="31.6204" height="47.9963" filterUnits="userSpaceOnUse" color-interpolation-filters="sRGB">
<feFlood flood-opacity="0" result="BackgroundImageFix"/>
<feBlend mode="normal" in="SourceGraphic" in2="BackgroundImageFix" result="shape"/>
<feGaussianBlur stdDeviation="1.93427" result="effect1_foregroundBlur_201_178"/>
</filter>
<filter id="filter38_f_201_178" x="337.929" y="26.8156" width="26.8061" height="43.1857" filterUnits="userSpaceOnUse" color-interpolation-filters="sRGB">
<feFlood flood-opacity="0" result="BackgroundImageFix"/>
<feBlend mode="normal" in="SourceGraphic" in2="BackgroundImageFix" result="shape"/>
<feGaussianBlur stdDeviation="0.644756" result="effect1_foregroundBlur_201_178"/>
</filter>
<filter id="filter39_ddi_201_178" x="337.711" y="27.8851" width="27.236" height="43.612" filterUnits="userSpaceOnUse" color-interpolation-filters="sRGB">
<feFlood flood-opacity="0" result="BackgroundImageFix"/>
<feColorMatrix in="SourceAlpha" type="matrix" values="0 0 0 0 0 0 0 0 0 0 0 0 0 0 0 0 0 0 127 0" result="hardAlpha"/>
<feOffset dy="0.838183"/>
<feGaussianBlur stdDeviation="0.322378"/>
<feColorMatrix type="matrix" values="0 0 0 0 0 0 0 0 0 0.051 0 0 0 0 0.082 0 0 0 0.7 0"/>
<feBlend mode="multiply" in2="BackgroundImageFix" result="effect1_dropShadow_201_178"/>
<feColorMatrix in="SourceAlpha" type="matrix" values="0 0 0 0 0 0 0 0 0 0 0 0 0 0 0 0 0 0 127 0" result="hardAlpha"/>
<feOffset dy="1.28951"/>
<feGaussianBlur stdDeviation="0.838183"/>
<feColorMatrix type="matrix" values="0 0 0 0 0 0 0 0 0 0.4 0 0 0 0 1 0 0 0 1 0"/>
<feBlend mode="color-dodge" in2="effect1_dropShadow_201_178" result="effect2_dropShadow_201_178"/>
<feBlend mode="normal" in="SourceGraphic" in2="effect2_dropShadow_201_178" result="shape"/>
<feColorMatrix in="SourceAlpha" type="matrix" values="0 0 0 0 0 0 0 0 0 0 0 0 0 0 0 0 0 0 127 0" result="hardAlpha"/>
<feOffset dx="-0.0838183" dy="0.167637"/>
<feGaussianBlur stdDeviation="0.0419092"/>
<feComposite in2="hardAlpha" operator="arithmetic" k2="-1" k3="1"/>
<feColorMatrix type="matrix" values="0 0 0 0 1 0 0 0 0 1 0 0 0 0 1 0 0 0 0.5 0"/>
<feBlend mode="normal" in2="shape" result="effect3_innerShadow_201_178"/>
</filter>
<filter id="filter40_f_201_178" x="339.47" y="28.3515" width="23.7118" height="40.0828" filterUnits="userSpaceOnUse" color-interpolation-filters="sRGB">
<feFlood flood-opacity="0" result="BackgroundImageFix"/>
<feBlend mode="normal" in="SourceGraphic" in2="BackgroundImageFix" result="shape"/>
<feGaussianBlur stdDeviation="0.0644756" result="effect1_foregroundBlur_201_178"/>
</filter>
<filter id="filter41_f_201_178" x="339.682" y="28.5613" width="23.282" height="39.6494" filterUnits="userSpaceOnUse" color-interpolation-filters="sRGB">
<feFlood flood-opacity="0" result="BackgroundImageFix"/>
<feBlend mode="normal" in="SourceGraphic" in2="BackgroundImageFix" result="shape"/>
<feGaussianBlur stdDeviation="0.0429838" result="effect1_foregroundBlur_201_178"/>
</filter>
<filter id="filter42_f_201_178" x="234.083" y="86.0144" width="177.195" height="249.507" filterUnits="userSpaceOnUse" color-interpolation-filters="sRGB">
<feFlood flood-opacity="0" result="BackgroundImageFix"/>
<feBlend mode="normal" in="SourceGraphic" in2="BackgroundImageFix" result="shape"/>
<feGaussianBlur stdDeviation="6.4031" result="effect1_foregroundBlur_201_178"/>
</filter>
<filter id="filter43_f_201_178" x="245.328" y="103.285" width="154.706" height="214.966" filterUnits="userSpaceOnUse" color-interpolation-filters="sRGB">
<feFlood flood-opacity="0" result="BackgroundImageFix"/>
<feBlend mode="normal" in="SourceGraphic" in2="BackgroundImageFix" result="shape"/>
<feGaussianBlur stdDeviation="6.4031" result="effect1_foregroundBlur_201_178"/>
</filter>
<filter id="filter44_f_201_178" x="253.438" y="111.396" width="138.485" height="198.744" filterUnits="userSpaceOnUse" color-interpolation-filters="sRGB">
<feFlood flood-opacity="0" result="BackgroundImageFix"/>
<feBlend mode="normal" in="SourceGraphic" in2="BackgroundImageFix" result="shape"/>
<feGaussianBlur stdDeviation="2.13437" result="effect1_foregroundBlur_201_178"/>
</filter>
<filter id="filter45_ddi_201_178" x="252.584" y="114.811" width="140.193" height="200.452" filterUnits="userSpaceOnUse" color-interpolation-filters="sRGB">
<feFlood flood-opacity="0" result="BackgroundImageFix"/>
<feColorMatrix in="SourceAlpha" type="matrix" values="0 0 0 0 0 0 0 0 0 0 0 0 0 0 0 0 0 0 127 0" result="hardAlpha"/>
<feOffset dy="2.77468"/>
<feGaussianBlur stdDeviation="1.06718"/>
<feColorMatrix type="matrix" values="0 0 0 0 0 0 0 0 0 0.051 0 0 0 0 0.082 0 0 0 0.7 0"/>
<feBlend mode="multiply" in2="BackgroundImageFix" result="effect1_dropShadow_201_178"/>
<feColorMatrix in="SourceAlpha" type="matrix" values="0 0 0 0 0 0 0 0 0 0 0 0 0 0 0 0 0 0 127 0" result="hardAlpha"/>
<feOffset dy="4.26873"/>
<feGaussianBlur stdDeviation="2.77468"/>
<feColorMatrix type="matrix" values="0 0 0 0 0 0 0 0 0 0.4 0 0 0 0 1 0 0 0 1 0"/>
<feBlend mode="color-dodge" in2="effect1_dropShadow_201_178" result="effect2_dropShadow_201_178"/>
<feBlend mode="normal" in="SourceGraphic" in2="effect2_dropShadow_201_178" result="shape"/>
<feColorMatrix in="SourceAlpha" type="matrix" values="0 0 0 0 0 0 0 0 0 0 0 0 0 0 0 0 0 0 127 0" result="hardAlpha"/>
<feOffset dx="-0.277468" dy="0.554935"/>
<feGaussianBlur stdDeviation="0.138734"/>
<feComposite in2="hardAlpha" operator="arithmetic" k2="-1" k3="1"/>
<feColorMatrix type="matrix" values="0 0 0 0 1 0 0 0 0 1 0 0 0 0 1 0 0 0 0.5 0"/>
<feBlend mode="normal" in2="shape" result="effect3_innerShadow_201_178"/>
</filter>
<filter id="filter46_f_201_178" x="258.241" y="116.198" width="128.88" height="189.14" filterUnits="userSpaceOnUse" color-interpolation-filters="sRGB">
<feFlood flood-opacity="0" result="BackgroundImageFix"/>
<feBlend mode="normal" in="SourceGraphic" in2="BackgroundImageFix" result="shape"/>
<feGaussianBlur stdDeviation="0.213437" result="effect1_foregroundBlur_201_178"/>
</filter>
<filter id="filter47_f_201_178" x="258.81" y="116.767" width="127.742" height="188.001" filterUnits="userSpaceOnUse" color-interpolation-filters="sRGB">
<feFlood flood-opacity="0" result="BackgroundImageFix"/>
<feBlend mode="normal" in="SourceGraphic" in2="BackgroundImageFix" result="shape"/>
<feGaussianBlur stdDeviation="0.142291" result="effect1_foregroundBlur_201_178"/>
</filter>
</defs>
</svg>
