<svg width="1400" height="246" viewBox="0 0 1400 246" fill="none" xmlns="http://www.w3.org/2000/svg">
<path d="M131.252 0.0391922V-1.96081H129.252V0.0391922H131.252ZM176.931 0.0391922H178.931V-1.96081H176.931V0.0391922ZM176.931 246V248H178.931V246H176.931ZM131.252 246H129.252V248H131.252V246ZM4.05548 246V248H6.05548V246H4.05548ZM-41.623 246H-43.623V248H-41.623V246ZM-41.623 0.0391922V-1.96081H-43.623V0.0391922H-41.623ZM4.05548 0.0391922H6.05548V-1.96081H4.05548V0.0391922ZM134.766 140.588V142.588H136.766V140.588H134.766ZM0.190384 140.588H-1.80962V142.588H0.190384V140.588ZM0.190384 101.586V99.5859H-1.80962V101.586H0.190384ZM134.766 101.586H136.766V99.5859H134.766V101.586ZM131.252 2.03919H176.931V-1.96081H131.252V2.03919ZM174.931 0.0391922V246H178.931V0.0391922H174.931ZM176.931 244H131.252V248H176.931V244ZM133.252 246V0.0391922H129.252V246H133.252ZM4.05548 244H-41.623V248H4.05548V244ZM-39.623 246V0.0391922H-43.623V246H-39.623ZM-41.623 2.03919H4.05548V-1.96081H-41.623V2.03919ZM2.05548 0.0391922V246H6.05548V0.0391922H2.05548ZM134.766 138.588H0.190384V142.588H134.766V138.588ZM2.19038 140.588V101.586H-1.80962V140.588H2.19038ZM0.190384 103.586H134.766V99.5859H0.190384V103.586ZM132.766 101.586V140.588H136.766V101.586H132.766ZM354.223 246H352.223V248H354.223V246ZM354.223 208.052H356.223V207.754L356.136 207.469L354.223 208.052ZM351.763 199.97H349.763V200.268L349.85 200.553L351.763 199.97ZM340.168 103.694L338.799 105.152L338.811 105.163L338.823 105.174L340.168 103.694ZM273.759 97.7208L273.152 95.8149L273.139 95.819L273.759 97.7208ZM248.108 111.424L246.347 112.373L247.508 114.528L249.389 112.961L248.108 111.424ZM230.891 79.4494L229.674 77.8628L228.323 78.899L229.13 80.3976L230.891 79.4494ZM266.731 62.2322L267.255 64.1624L267.266 64.1595L267.276 64.1564L266.731 62.2322ZM373.197 75.9357L371.868 77.4305L371.881 77.4416L371.894 77.4525L373.197 75.9357ZM395.685 246V248H397.685V246H395.685ZM258.298 241.432L257.452 243.245L257.469 243.252L257.486 243.26L258.298 241.432ZM233.702 221.404L232.024 222.492L232.041 222.519L232.059 222.545L233.702 221.404ZM232.648 163.779L230.941 162.736L230.931 162.753L230.92 162.771L232.648 163.779ZM257.595 143.751L258.383 145.589L257.595 143.751ZM357.737 136.372H359.737V134.372H357.737V136.372ZM357.737 165.536V167.536H359.737V165.536H357.737ZM276.218 172.915L277.564 174.394L277.582 174.378L277.599 174.361L276.218 172.915ZM277.975 209.457L276.785 211.064L277.975 209.457ZM333.141 209.106L332.153 207.367L332.143 207.372L332.133 207.378L333.141 209.106ZM351.763 187.321L353.689 186.782L352.076 181.019L349.9 186.594L351.763 187.321ZM359.142 213.674L361.01 214.389L361.246 213.771L361.068 213.134L359.142 213.674ZM336.303 239.324L335.335 237.574L335.327 237.578L335.319 237.583L336.303 239.324ZM356.223 246V208.052H352.223V246H356.223ZM356.136 207.469L353.677 199.388L349.85 200.553L352.31 208.634L356.136 207.469ZM353.763 199.97V133.561H349.763V199.97H353.763ZM353.763 133.561C353.763 120.255 349.755 109.707 341.513 102.214L338.823 105.174C346.042 111.737 349.763 121.099 349.763 133.561H353.763ZM341.537 102.236C333.292 94.4908 320.994 90.8016 305.031 90.8016V94.8016C320.457 94.8016 331.584 98.374 338.799 105.152L341.537 102.236ZM305.031 90.8016C294.278 90.8016 283.65 92.4747 273.152 95.8149L274.365 99.6266C284.481 96.4079 294.701 94.8016 305.031 94.8016V90.8016ZM273.139 95.819C262.863 99.1649 254.079 103.845 246.828 109.888L249.389 112.961C256.193 107.291 264.509 102.836 274.378 99.6225L273.139 95.819ZM249.869 110.476L232.652 78.5012L229.13 80.3976L246.347 112.373L249.869 110.476ZM232.109 81.036C241.95 73.4835 253.654 67.8509 267.255 64.1624L266.208 60.3019C252.168 64.1094 239.978 69.9549 229.674 77.8628L232.109 81.036ZM267.276 64.1564C281.149 60.2257 295.489 58.2588 310.301 58.2588V54.2588C295.13 54.2588 280.423 56.2741 266.186 60.3079L267.276 64.1564ZM310.301 58.2588C337.169 58.2588 357.595 64.7429 371.868 77.4305L374.526 74.4409C359.284 60.8927 337.779 54.2588 310.301 54.2588V58.2588ZM371.894 77.4525C386.295 89.8289 393.685 109.202 393.685 136.02H397.685C397.685 108.493 390.083 87.8097 374.501 74.4188L371.894 77.4525ZM393.685 136.02V246H397.685V136.02H393.685ZM395.685 244H354.223V248H395.685V244ZM295.192 246.46C281.358 246.46 269.346 244.154 259.111 239.605L257.486 243.26C268.332 248.08 280.917 250.46 295.192 250.46V246.46ZM259.144 239.62C248.88 234.83 240.974 228.369 235.345 220.263L232.059 222.545C238.143 231.305 246.634 238.196 257.452 243.245L259.144 239.62ZM235.38 220.316C229.978 211.987 227.269 202.647 227.269 192.24H223.269C223.269 203.384 226.183 213.487 232.024 222.492L235.38 220.316ZM227.269 192.24C227.269 182.024 229.649 172.889 234.376 164.787L230.92 162.771C225.809 171.534 223.269 181.374 223.269 192.24H227.269ZM234.355 164.822C239.241 156.826 247.185 150.388 258.383 145.589L256.808 141.912C245.049 146.952 236.362 153.866 230.941 162.736L234.355 164.822ZM258.383 145.589C269.518 140.817 284.444 138.372 303.274 138.372V134.372C284.156 134.372 268.63 136.846 256.808 141.912L258.383 145.589ZM303.274 138.372H357.737V134.372H303.274V138.372ZM355.737 136.372V165.536H359.737V136.372H355.737ZM357.737 163.536H306.436V167.536H357.737V163.536ZM306.436 163.536C298.845 163.536 292.407 164.157 287.163 165.437C281.932 166.715 277.757 168.681 274.837 171.468L277.599 174.361C279.833 172.229 283.271 170.505 288.112 169.323C292.941 168.144 299.036 167.536 306.436 167.536V163.536ZM274.873 171.435C269.298 176.503 266.488 182.898 266.488 190.483H270.488C270.488 184.013 272.831 178.696 277.564 174.394L274.873 171.435ZM266.488 190.483C266.488 199.072 269.944 205.997 276.785 211.064L279.166 207.85C273.357 203.548 270.488 197.823 270.488 190.483H266.488ZM276.785 211.064C283.573 216.093 292.833 218.485 304.328 218.485V214.485C293.335 214.485 285.026 212.191 279.166 207.85L276.785 211.064ZM304.328 218.485C315.42 218.485 325.379 215.949 334.148 210.833L332.133 207.378C324.037 212.101 314.787 214.485 304.328 214.485V218.485ZM334.128 210.845C343.209 205.691 349.718 198.064 353.626 188.048L349.9 186.594C346.313 195.786 340.406 202.682 332.153 207.367L334.128 210.845ZM349.837 187.86L357.216 214.213L361.068 213.134L353.689 186.782L349.837 187.86ZM357.274 212.958C353.238 223.497 345.962 231.695 335.335 237.574L337.271 241.074C348.663 234.772 356.613 225.87 361.01 214.389L357.274 212.958ZM335.319 237.583C324.929 243.455 311.593 246.46 295.192 246.46V250.46C312.055 250.46 326.126 247.374 337.287 241.065L335.319 237.583ZM598.575 65.0431L597.681 66.832L597.688 66.8355L597.695 66.839L598.575 65.0431ZM626.685 92.0988L624.938 93.0729L624.942 93.0802L624.946 93.0874L626.685 92.0988ZM636.875 246V248H638.875V246H636.875ZM592.953 246H590.953V248H592.953V246ZM581.006 106.856L579.551 108.228L579.562 108.239L579.572 108.25L581.006 106.856ZM520.922 100.883L521.858 102.651L520.922 100.883ZM502.299 119.857L500.53 118.924L500.525 118.933L500.52 118.943L502.299 119.857ZM495.974 246V248H497.974V246H495.974ZM452.053 246H450.053V248H452.053V246ZM452.053 58.367V56.367H450.053V58.367H452.053ZM493.866 58.367H495.866V56.367H493.866V58.367ZM493.866 108.965L492.061 109.826L495.866 108.965H493.866ZM486.487 93.5043L484.734 92.5418L484.241 93.4405L484.682 94.3658L486.487 93.5043ZM514.948 66.0972L515.856 67.8793L515.863 67.8761L515.869 67.8727L514.948 66.0972ZM558.519 58.2588C573.245 58.2588 586.284 61.1335 597.681 66.832L599.469 63.2543C587.442 57.2403 573.776 54.2588 558.519 54.2588V58.2588ZM597.695 66.839C609.257 72.5069 618.333 81.2296 624.938 93.0729L628.432 91.1247C621.45 78.6062 611.786 69.2917 599.455 63.2473L597.695 66.839ZM624.946 93.0874C631.515 104.64 634.875 119.727 634.875 138.48H638.875C638.875 119.285 635.441 103.451 628.423 91.1102L624.946 93.0874ZM634.875 138.48V246H638.875V138.48H634.875ZM636.875 244H592.953V248H636.875V244ZM594.953 246V144.102H590.953V246H594.953ZM594.953 144.102C594.953 127.186 590.905 114.175 582.441 105.463L579.572 108.25C587.037 115.935 590.953 127.755 590.953 144.102H594.953ZM582.462 105.484C574.264 96.7902 562.789 92.5584 548.329 92.5584V96.5584C561.978 96.5584 572.288 100.525 579.551 108.228L582.462 105.484ZM548.329 92.5584C537.743 92.5584 528.278 94.7258 519.986 99.1156L521.858 102.651C529.495 98.6076 538.301 96.5584 548.329 96.5584V92.5584ZM519.986 99.1156C511.645 103.531 505.157 110.157 500.53 118.924L504.068 120.791C508.342 112.691 514.269 106.668 521.858 102.651L519.986 99.1156ZM500.52 118.943C496.115 127.51 493.974 138.274 493.974 151.129H497.974C497.974 138.686 500.05 128.602 504.078 120.772L500.52 118.943ZM493.974 151.129V246H497.974V151.129H493.974ZM495.974 244H452.053V248H495.974V244ZM454.053 246V58.367H450.053V246H454.053ZM452.053 60.367H493.866V56.367H452.053V60.367ZM491.866 58.367V108.965H495.866V58.367H491.866ZM495.671 108.103L488.292 92.6428L484.682 94.3658L492.061 109.826L495.671 108.103ZM488.24 94.4668C494.602 82.8802 503.79 74.0262 515.856 67.8793L514.041 64.3152C501.276 70.8177 491.491 80.235 484.734 92.5418L488.24 94.4668ZM515.869 67.8727C528.194 61.4821 542.393 58.2588 558.519 58.2588V54.2588C541.849 54.2588 527.002 57.5944 514.028 64.3217L515.869 67.8727ZM727.018 309.598L727.561 307.673L727.551 307.671L727.542 307.668L727.018 309.598ZM686.61 289.922L684.892 288.898L684.012 290.375L685.34 291.466L686.61 289.922ZM706.287 256.893L707.563 255.353L705.765 253.862L704.569 255.869L706.287 256.893ZM737.208 273.056L737.841 271.158L737.83 271.155L737.819 271.151L737.208 273.056ZM820.835 264.974L819.438 263.543L819.429 263.551L819.421 263.56L820.835 264.974ZM835.241 189.078L833.248 188.913L833.241 188.995V189.078H835.241ZM838.755 146.562L840.748 146.726L840.757 146.611L840.754 146.495L838.755 146.562ZM837.349 104.045H835.349V104.079L835.35 104.112L837.349 104.045ZM837.349 58.367V56.367H835.349V58.367H837.349ZM879.163 58.367H881.163V56.367H879.163V58.367ZM853.161 292.381L851.808 290.909L851.802 290.913L851.797 290.918L853.161 292.381ZM723.856 226.323L722.904 228.082L722.921 228.091L722.939 228.1L723.856 226.323ZM689.773 194.348L688.06 195.382L688.067 195.392L688.073 195.403L689.773 194.348ZM689.773 99.1263L688.073 98.0715L688.067 98.0822L688.06 98.0929L689.773 99.1263ZM723.856 67.5027L722.939 65.7255L722.927 65.7316L723.856 67.5027ZM815.213 65.7459L814.318 67.5347L815.213 65.7459ZM845.431 95.2612L843.687 96.2402L843.693 96.2518L843.7 96.2632L845.431 95.2612ZM845.431 198.213L843.692 197.224L843.687 197.234L845.431 198.213ZM815.213 228.08L816.107 229.869L816.12 229.862L816.133 229.856L815.213 228.08ZM808.537 193.645L809.45 195.425L809.469 195.415L809.488 195.405L808.537 193.645ZM828.565 174.671L826.85 173.642L826.845 173.65L826.841 173.657L828.565 174.671ZM828.565 118.803L826.828 119.795L826.845 119.825L826.863 119.854L828.565 118.803ZM808.537 100.18L807.623 101.96L807.642 101.969L807.662 101.979L808.537 100.18ZM749.155 100.18L750.03 101.979L750.039 101.974L750.049 101.969L749.155 100.18ZM728.775 118.803L727.06 117.774L727.056 117.782L727.051 117.789L728.775 118.803ZM728.775 174.671L727.039 175.664L727.056 175.693L727.074 175.722L728.775 174.671ZM749.155 193.645L748.204 195.405L748.232 195.42L748.26 195.434L749.155 193.645ZM777.967 314.626C760.816 314.626 744.015 312.308 727.561 307.673L726.476 311.524C743.285 316.258 760.45 318.626 777.967 318.626V314.626ZM727.542 307.668C711.353 303.274 698.156 296.826 687.881 288.377L685.34 291.466C696.147 300.352 709.889 307.021 726.494 311.529L727.542 307.668ZM688.329 290.945L708.005 257.916L704.569 255.869L684.892 288.898L688.329 290.945ZM705.011 258.433C713.445 265.421 723.992 270.917 736.597 274.96L737.819 271.151C725.594 267.23 715.527 261.951 707.563 255.353L705.011 258.433ZM736.576 274.953C749.422 279.235 762.402 281.38 775.508 281.38V277.38C762.846 277.38 750.293 275.309 737.841 271.158L736.576 274.953ZM775.508 281.38C796.382 281.38 812.114 276.523 822.249 266.388L819.421 263.56C810.347 272.634 795.861 277.38 775.508 277.38V281.38ZM822.231 266.406C832.358 256.526 837.241 241.745 837.241 222.458H833.241C833.241 241.12 828.52 254.682 819.438 263.543L822.231 266.406ZM837.241 222.458V189.078H833.241V222.458H837.241ZM837.234 189.242L840.748 146.726L836.762 146.397L833.248 188.913L837.234 189.242ZM840.754 146.495L839.348 103.979L835.35 104.112L836.756 146.628L840.754 146.495ZM839.349 104.045V58.367H835.349V104.045H839.349ZM837.349 60.367H879.163V56.367H837.349V60.367ZM877.163 58.367V217.539H881.163V58.367H877.163ZM877.163 217.539C877.163 251.197 868.575 275.501 851.808 290.909L854.514 293.854C872.416 277.404 881.163 251.813 881.163 217.539H877.163ZM851.797 290.918C834.955 306.623 810.452 314.626 777.967 314.626V318.626C811.072 318.626 836.698 310.466 854.525 293.844L851.797 290.918ZM772.345 235.567C754.833 235.567 738.988 231.883 724.773 224.546L722.939 228.1C737.77 235.755 754.252 239.567 772.345 239.567V235.567ZM724.808 224.564C710.82 216.997 699.718 206.579 691.472 193.294L688.073 195.403C696.693 209.29 708.314 220.189 722.904 228.082L724.808 224.564ZM691.485 193.315C683.502 180.085 679.475 164.525 679.475 146.562H675.475C675.475 165.141 679.646 181.439 688.06 195.382L691.485 193.315ZM679.475 146.562C679.475 128.838 683.499 113.393 691.485 100.16L688.06 98.0929C679.649 112.032 675.475 128.211 675.475 146.562H679.475ZM691.472 100.181C699.715 86.9007 710.809 76.6056 724.785 69.2738L722.927 65.7316C708.325 73.3918 696.696 84.179 688.073 98.0715L691.472 100.181ZM724.773 69.28C738.988 61.9432 754.833 58.2588 772.345 58.2588V54.2588C754.252 54.2588 737.77 58.0704 722.939 65.7255L724.773 69.28ZM772.345 58.2588C788.003 58.2588 801.98 61.3655 814.318 67.5347L816.107 63.957C803.147 57.4768 788.545 54.2588 772.345 54.2588V58.2588ZM814.318 67.5347C826.58 73.6656 836.37 83.2066 843.687 96.2402L847.175 94.2821C839.5 80.6114 829.144 70.4755 816.107 63.957L814.318 67.5347ZM843.7 96.2632C851.203 109.222 855.026 125.946 855.026 146.562H859.026C859.026 125.481 855.12 108.004 847.162 94.2591L843.7 96.2632ZM855.026 146.562C855.026 167.175 851.203 184.023 843.693 197.224L847.169 199.202C855.119 185.23 859.026 167.645 859.026 146.562H855.026ZM843.687 197.234C836.367 210.273 826.569 219.939 814.292 226.304L816.133 229.856C829.155 223.104 839.503 212.858 847.175 199.192L843.687 197.234ZM814.318 226.291C801.98 232.46 788.003 235.567 772.345 235.567V239.567C788.545 239.567 803.147 236.349 816.107 229.869L814.318 226.291ZM779.021 202.322C790.307 202.322 800.466 200.038 809.45 195.425L807.623 191.866C799.273 196.154 789.755 198.322 779.021 198.322V202.322ZM809.488 195.405C818.454 190.559 825.407 183.985 830.289 175.685L826.841 173.657C822.353 181.287 815.954 187.363 807.586 191.886L809.488 195.405ZM830.28 175.7C835.404 167.16 837.944 157.427 837.944 146.562H833.944C833.944 156.779 831.564 165.786 826.85 173.642L830.28 175.7ZM837.944 146.562C837.944 135.697 835.405 126.071 830.267 117.752L826.863 119.854C831.564 127.464 833.944 136.344 833.944 146.562H837.944ZM830.301 117.811C825.413 109.255 818.433 102.77 809.412 98.3819L807.662 101.979C815.975 106.023 822.347 111.954 826.828 119.795L830.301 117.811ZM809.45 98.4012C800.466 93.7875 790.307 91.5043 779.021 91.5043V95.5043C789.755 95.5043 799.273 97.6719 807.623 101.96L809.45 98.4012ZM779.021 91.5043C767.735 91.5043 757.468 93.7877 748.26 98.3915L750.049 101.969C758.644 97.6716 768.289 95.5043 779.021 95.5043V91.5043ZM748.28 98.3819C739.267 102.767 732.181 109.24 727.06 117.774L730.49 119.832C735.208 111.969 741.708 106.027 750.03 101.979L748.28 98.3819ZM727.051 117.789C722.161 126.102 719.748 135.715 719.748 146.562H723.748C723.748 136.326 726.019 127.433 730.499 119.817L727.051 117.789ZM719.748 146.562C719.748 157.409 722.162 167.129 727.039 175.664L730.512 173.679C726.019 165.817 723.748 156.796 723.748 146.562H719.748ZM727.074 175.722C732.186 184 739.245 190.563 748.204 195.405L750.106 191.886C741.73 187.358 735.202 181.271 730.477 173.62L727.074 175.722ZM748.26 195.434C757.468 200.038 767.735 202.322 779.021 202.322V198.322C768.289 198.322 758.644 196.154 750.049 191.857L748.26 195.434ZM969.935 236.162L968.954 237.905L968.965 237.911L968.975 237.916L969.935 236.162ZM934.446 201.727L932.729 202.752L934.446 201.727ZM934.446 102.64L936.156 103.677L936.16 103.671L936.164 103.665L934.446 102.64ZM969.935 68.5569L970.894 70.3116V70.3116L969.935 68.5569ZM1072.89 68.5569L1071.93 70.3116L1071.94 70.3178L1072.89 68.5569ZM1108.38 102.289L1106.65 103.305L1106.66 103.316L1106.67 103.326L1108.38 102.289ZM1108.38 201.727L1106.66 200.702L1106.65 200.712L1106.65 200.723L1108.38 201.727ZM1072.89 236.162L1073.85 237.916L1073.86 237.911L1072.89 236.162ZM1050.05 203.835L1049.08 202.087L1050.05 203.835ZM1069.72 183.456L1067.97 182.488L1067.96 182.506L1067.95 182.524L1069.72 183.456ZM1069.72 120.911L1067.95 121.843L1067.97 121.871L1067.99 121.899L1069.72 120.911ZM1050.05 100.532L1051.02 98.7834L1050.05 100.532ZM992.774 100.532L991.803 98.7834L991.792 98.7893L991.782 98.7953L992.774 100.532ZM973.097 120.911L974.836 121.899L974.842 121.889L974.848 121.879L973.097 120.911ZM973.097 183.456L971.347 184.423L973.097 183.456ZM992.774 203.835L991.782 205.572L991.792 205.578L991.803 205.584L992.774 203.835ZM1021.24 246.46C1002.32 246.46 985.557 242.425 970.894 234.407L968.975 237.916C984.296 246.295 1001.73 250.46 1021.24 250.46V246.46ZM970.915 234.418C956.222 226.153 944.649 214.921 936.164 200.702L932.729 202.752C941.578 217.58 953.664 229.304 968.954 237.905L970.915 234.418ZM936.164 200.702C927.698 186.517 923.445 170.363 923.445 152.184H919.445C919.445 171.015 923.859 187.89 932.729 202.752L936.164 200.702ZM923.445 152.184C923.445 133.764 927.701 117.617 936.156 103.677L932.736 101.603C923.857 116.241 919.445 133.123 919.445 152.184H923.445ZM936.164 103.665C944.646 89.4514 956.212 78.3409 970.894 70.3116L968.975 66.8021C953.673 75.1702 941.581 86.7818 932.729 101.615L936.164 103.665ZM970.894 70.3116C985.557 62.293 1002.32 58.2588 1021.24 58.2588V54.2588C1001.73 54.2588 984.296 58.4234 968.975 66.8021L970.894 70.3116ZM1021.24 58.2588C1040.39 58.2588 1057.27 62.2949 1071.93 70.3116L1073.85 66.8021C1058.52 58.4214 1040.97 54.2588 1021.24 54.2588V58.2588ZM1071.94 70.3178C1086.86 78.3512 1098.41 89.3437 1106.65 103.305L1110.1 101.272C1101.47 86.6553 1089.37 75.1599 1073.84 66.7959L1071.94 70.3178ZM1106.67 103.326C1115.12 117.262 1119.38 133.525 1119.38 152.184H1123.38C1123.38 132.894 1118.97 115.894 1110.09 101.251L1106.67 103.326ZM1119.38 152.184C1119.38 170.363 1115.12 186.517 1106.66 200.702L1110.09 202.752C1118.96 187.89 1123.38 171.015 1123.38 152.184H1119.38ZM1106.65 200.723C1098.4 214.922 1086.84 226.148 1071.92 234.412L1073.86 237.911C1089.39 229.31 1101.48 217.579 1110.11 202.731L1106.65 200.723ZM1071.93 234.407C1057.27 242.424 1040.39 246.46 1021.24 246.46V250.46C1040.97 250.46 1058.52 246.297 1073.85 237.916L1071.93 234.407ZM1021.24 212.863C1032.31 212.863 1042.26 210.452 1051.02 205.584L1049.08 202.087C1040.97 206.588 1031.71 208.863 1021.24 208.863V212.863ZM1051.02 205.584C1059.81 200.701 1066.64 193.617 1071.49 184.387L1067.95 182.524C1063.44 191.097 1057.15 197.599 1049.08 202.087L1051.02 205.584ZM1071.47 184.423C1076.58 175.178 1079.1 164.409 1079.1 152.184H1075.1C1075.1 163.851 1072.7 173.931 1067.97 182.488L1071.47 184.423ZM1079.1 152.184C1079.1 139.733 1076.59 128.952 1071.46 119.924L1067.99 121.899C1072.7 130.205 1075.1 140.272 1075.1 152.184H1079.1ZM1071.49 119.98C1066.64 110.75 1059.81 103.666 1051.02 98.7834L1049.08 102.28C1057.15 106.768 1063.44 113.27 1067.95 121.843L1071.49 119.98ZM1051.02 98.7834C1042.26 93.9184 1032.44 91.5043 1021.59 91.5043V95.5043C1031.82 95.5043 1040.97 97.7752 1049.08 102.28L1051.02 98.7834ZM1021.59 91.5043C1010.51 91.5043 1000.57 93.9148 991.803 98.7834L993.745 102.28C1001.85 97.7788 1011.11 95.5043 1021.59 95.5043V91.5043ZM991.782 98.7953C983.24 103.676 976.429 110.747 971.347 119.944L974.848 121.879C979.604 113.273 985.911 106.757 993.766 102.268L991.782 98.7953ZM971.358 119.924C966.234 128.952 963.718 139.733 963.718 152.184H967.718C967.718 140.272 970.122 130.205 974.836 121.899L971.358 119.924ZM963.718 152.184C963.718 164.409 966.237 175.178 971.347 184.423L974.848 182.488C970.119 173.931 967.718 163.851 967.718 152.184H963.718ZM971.347 184.423C976.429 193.62 983.24 200.691 991.782 205.572L993.766 202.099C985.911 197.61 979.604 191.094 974.848 182.488L971.347 184.423ZM991.803 205.584C1000.56 210.449 1010.39 212.863 1021.24 212.863V208.863C1011 208.863 1001.85 206.592 993.745 202.087L991.803 205.584ZM1200.62 239.675L1199.73 241.464L1199.74 241.471L1199.76 241.478L1200.62 239.675ZM1172.16 212.268L1170.41 213.228L1170.41 213.235L1170.41 213.242L1172.16 212.268ZM1161.97 58.367V56.367H1159.97V58.367H1161.97ZM1205.89 58.367H1207.89V56.367H1205.89V58.367ZM1217.14 197.511L1215.64 198.839L1215.66 198.861L1215.68 198.883L1217.14 197.511ZM1276.52 203.484L1275.56 201.728L1275.55 201.734L1275.54 201.741L1276.52 203.484ZM1294.44 184.51L1292.67 183.576L1292.66 183.596L1292.65 183.615L1294.44 184.51ZM1301.11 58.367V56.367H1299.11V58.367H1301.11ZM1345.04 58.367H1347.04V56.367H1345.04V58.367ZM1345.04 246V248H1347.04V246H1345.04ZM1303.22 246H1301.22V248H1303.22V246ZM1303.22 195.402L1305.03 194.541L1301.22 195.402H1303.22ZM1310.6 210.863L1312.38 211.784L1312.84 210.9L1312.41 210.001L1310.6 210.863ZM1282.84 238.973L1283.76 240.748L1283.78 240.741L1283.79 240.733L1282.84 238.973ZM1242.79 246.46C1227.1 246.46 1213.35 243.578 1201.49 237.873L1199.76 241.478C1212.25 247.485 1226.61 250.46 1242.79 250.46V246.46ZM1201.52 237.886C1189.7 231.98 1180.51 223.133 1173.91 211.294L1170.41 213.242C1177.4 225.765 1187.18 235.189 1199.73 241.464L1201.52 237.886ZM1173.92 211.308C1167.33 199.267 1163.97 184.045 1163.97 165.536H1159.97C1159.97 184.506 1163.41 200.439 1170.41 213.228L1173.92 211.308ZM1163.97 165.536V58.367H1159.97V165.536H1163.97ZM1161.97 60.367H1205.89V56.367H1161.97V60.367ZM1203.89 58.367V159.562H1207.89V58.367H1203.89ZM1203.89 159.562C1203.89 176.682 1207.69 189.896 1215.64 198.839L1218.63 196.182C1211.59 188.259 1207.89 176.174 1207.89 159.562H1203.89ZM1215.68 198.883C1223.88 207.577 1235.35 211.809 1249.81 211.809V207.809C1236.16 207.809 1225.85 203.842 1218.59 196.139L1215.68 198.883ZM1249.81 211.809C1260.4 211.809 1269.65 209.642 1277.5 205.227L1275.54 201.741C1268.4 205.758 1259.85 207.809 1249.81 207.809V211.809ZM1277.48 205.24C1285.59 200.814 1291.84 194.175 1296.23 185.404L1292.65 183.615C1288.6 191.71 1282.91 197.721 1275.56 201.728L1277.48 205.24ZM1296.21 185.443C1300.85 176.649 1303.11 165.883 1303.11 153.238H1299.11C1299.11 165.423 1296.93 175.505 1292.67 183.576L1296.21 185.443ZM1303.11 153.238V58.367H1299.11V153.238H1303.11ZM1301.11 60.367H1345.04V56.367H1301.11V60.367ZM1343.04 58.367V246H1347.04V58.367H1343.04ZM1345.04 244H1303.22V248H1345.04V244ZM1305.22 246V195.402H1301.22V246H1305.22ZM1301.42 196.264L1308.8 211.724L1312.41 210.001L1305.03 194.541L1301.42 196.264ZM1308.83 209.941C1302.69 221.763 1293.73 230.841 1281.89 237.212L1283.79 240.733C1296.32 233.986 1305.86 224.325 1312.38 211.784L1308.83 209.941ZM1281.92 237.198C1270.04 243.366 1257.01 246.46 1242.79 246.46V250.46C1257.61 250.46 1271.28 247.229 1283.76 240.748L1281.92 237.198ZM1425.38 232.648L1424 234.092L1424.01 234.099L1424.01 234.107L1425.38 232.648ZM1408.52 16.9051V14.9051H1406.52V16.9051H1408.52ZM1452.44 16.9051H1454.44V14.9051H1452.44V16.9051ZM1459.11 204.889L1457.63 206.231L1457.65 206.25L1457.67 206.269L1459.11 204.889ZM1503.04 204.538L1504.9 203.806L1503.91 201.305L1501.8 202.965L1503.04 204.538ZM1515.33 235.81L1516.6 237.358L1517.73 236.435L1517.19 235.078L1515.33 235.81ZM1496.36 245.297L1496.9 247.223L1496.36 245.297ZM1377.6 94.9098H1375.6V96.9098H1377.6V94.9098ZM1377.6 59.7725V57.7725H1375.6V59.7725H1377.6ZM1502.68 59.7725H1504.68V57.7725H1502.68V59.7725ZM1502.68 94.9098V96.9098H1504.68V94.9098H1502.68ZM1473.17 246.46C1452.89 246.46 1437.51 241.279 1426.75 231.189L1424.01 234.107C1435.74 245.099 1452.22 250.46 1473.17 250.46V246.46ZM1426.77 231.204C1416.04 220.92 1410.52 205.707 1410.52 185.213H1406.52C1406.52 206.414 1412.24 222.824 1424 234.092L1426.77 231.204ZM1410.52 185.213V16.9051H1406.52V185.213H1410.52ZM1408.52 18.9051H1452.44V14.9051H1408.52V18.9051ZM1450.44 16.9051V184.158H1454.44V16.9051H1450.44ZM1450.44 184.158C1450.44 193.384 1452.75 200.834 1457.63 206.231L1460.6 203.548C1456.58 199.106 1454.44 192.736 1454.44 184.158H1450.44ZM1457.67 206.269C1462.8 211.665 1469.82 214.268 1478.44 214.268V210.268C1470.67 210.268 1464.79 207.953 1460.56 203.51L1457.67 206.269ZM1478.44 214.268C1488.64 214.268 1497.3 211.589 1504.27 206.111L1501.8 202.965C1495.65 207.794 1487.91 210.268 1478.44 210.268V214.268ZM1501.17 205.27L1513.47 236.542L1517.19 235.078L1504.9 203.806L1501.17 205.27ZM1514.07 234.262C1509.16 238.277 1503.09 241.326 1495.82 243.372L1496.9 247.223C1504.62 245.052 1511.2 241.776 1516.6 237.358L1514.07 234.262ZM1495.82 243.372C1488.5 245.429 1480.95 246.46 1473.17 246.46V250.46C1481.31 250.46 1489.22 249.381 1496.9 247.223L1495.82 243.372ZM1379.6 94.9098V59.7725H1375.6V94.9098H1379.6ZM1377.6 61.7725H1502.68V57.7725H1377.6V61.7725ZM1500.68 59.7725V94.9098H1504.68V59.7725H1500.68ZM1502.68 92.9098H1377.6V96.9098H1502.68V92.9098Z" fill="#093DD6"/>
</svg>
